<?xml version="1.0" encoding="UTF-8"?>
<svg id="Layer_1" xmlns="http://www.w3.org/2000/svg" version="1.1" viewBox="0 0 1152 648">
  <!-- Generator: Adobe Illustrator 30.2.1, SVG Export Plug-In . SVG Version: 2.1.1 Build 1)  -->
  <g>
    <g fill="White">
      <path d="M616.6,235.5l-13.7,13.6h-13.9c-2.1,0-4-.4-5.6-1.2-.9-.4-1.7-1-2.4-1.7-.8-.8-1.4-1.6-1.9-2.6-.7-1.5-1.1-3.2-1.1-5.1v-48.3h15.7v45.2h22.9Z"/>
      <path d="M636.8,253v13.6h-43.2v24.1l-15.7-15.7v-11.5c0-1.9.4-3.6,1.1-5.1.5-1,1.1-1.8,1.9-2.6.7-.7,1.6-1.3,2.4-1.7,1.6-.8,3.4-1.2,5.6-1.2h47.9Z"/>
      <path d="M574.1,227.1v11.5c0,1.9-.4,3.6-1.1,5.1-.5,1-1.1,1.8-1.9,2.6-.7.7-1.5,1.3-2.4,1.7-1.6.8-3.4,1.2-5.6,1.2h-47.9v-13.6h43.2v-24.1l15.7,15.7Z"/>
      <path d="M574.1,263.6v48.3h-15.7v-45.2h-22.9l13.7-13.6h13.9c2.1,0,4,.4,5.6,1.2.9.4,1.7,1,2.4,1.7.8.8,1.4,1.6,1.9,2.6.7,1.5,1.1,3.2,1.1,5.1Z"/>
    </g>
    <g fill="White"> 
      <path d="M327,413.7c-2-1.9-3-4.5-3-7.7v-69.5h15.8v66.4h43.5v13.7h-48.2c-3.4,0-6-1-8.1-2.9Z"/>
      <path d="M405.8,413.6c-2.1-2-3.1-4.6-3.1-7.8v-69.4h61.1v13.7h-45.3v18.5h41.9v13.7h-41.9v20.4h45.3v13.7h-50c-3.3,0-6-1-8-3Z"/>
      <path d="M489.2,413.6c-2.1-2-3.1-4.6-3.1-7.8v-69.4h38.2c6.1,0,11.5,1.1,16.1,3.4,4.6,2.3,8.2,5.5,10.8,9.7,2.6,4.2,3.8,9,3.8,14.5v22.4c0,9.8-2.6,17.3-7.7,22.4-5.1,5.1-12.6,7.6-22.6,7.6h-27.6c-3.3,0-6-1-8-3ZM524.3,402.7c4.9,0,8.6-1.4,11.1-4.2,2.5-2.8,3.8-7,3.8-12.5v-21.1c0-4.4-1.4-7.8-4.2-10.5-2.8-2.6-6.5-3.9-11.1-3.9h-22v52.2h22.4Z"/>
      <path d="M580.9,413.7c-2-1.9-3-4.5-3-7.7v-69.5h15.8v66.4h43.5v13.7h-48.2c-3.4,0-6-1-8.1-2.9Z"/>
      <path d="M667.2,413.5c-4.3-2.4-7.6-5.8-10-10.1-2.4-4.3-3.5-9.4-3.5-15.1v-52.2h15.8v51.7c0,4.6,1.2,8.3,3.5,11.1,2.3,2.8,5.4,4.2,9.1,4.2h12.1c3.8,0,6.9-1.4,9.3-4.2,2.4-2.8,3.5-6.5,3.5-11.1v-51.7h15.8v52.2c0,5.7-1.2,10.8-3.5,15.1-2.4,4.4-5.7,7.7-10.1,10.1-4.4,2.4-9.3,3.6-15,3.6h-12.1c-5.6,0-10.6-1.2-14.9-3.6Z"/>
      <path d="M748,336.5h14.1l26.2,47.6,25.6-47.6h14.1v80.1h-15.5v-50.7l-16.8,30.4c-1.1,2.1-2.3,3.5-3.5,4.4-1.2.9-2.5,1.3-4.1,1.3h-4.3l-20.4-36.2v50.7h-15.5v-80.1Z"/>
    </g>
  </g>
  <g fill="White">
    <path d="M428.8,450.6c.6.8.9,1.6.9,2.6s-.2,1.6-.6,2.2c-.4.7-1,1.2-1.8,1.6s-1.7.6-2.8.6h-6.4v-16.1h6.1c1.1,0,2,.2,2.8.6.8.4,1.4.9,1.8,1.5.4.6.6,1.3.6,2.1s-.2,1.7-.7,2.3c-.5.6-1.2,1.1-2,1.4.9.2,1.6.6,2.2,1.4ZM420.6,448.2h3.3c.9,0,1.5-.2,2-.6.5-.4.7-1,.7-1.7s-.2-1.3-.7-1.7c-.5-.4-1.2-.6-2-.6h-3.3v4.6ZM426.3,454.7c.5-.4.8-1,.8-1.8s-.3-1.4-.8-1.9-1.3-.7-2.2-.7h-3.5v5h3.6c.9,0,1.6-.2,2.1-.6Z"/>
    <path d="M446.8,443.6v4.7h5.6v2.2h-5.6v4.9h6.3v2.2h-8.9v-16.1h8.9v2.2h-6.3Z"/>
    <path d="M479.8,441.4l-5.3,10.3v5.8h-2.6v-5.8l-5.3-10.3h2.9l3.7,7.9,3.7-7.9h2.9Z"/>
    <path d="M496.6,456.7c-1.3-.7-2.3-1.7-3-2.9-.7-1.3-1.1-2.7-1.1-4.2s.4-3,1.1-4.2c.7-1.3,1.7-2.2,3-2.9s2.6-1.1,4.1-1.1,2.9.4,4.2,1.1,2.2,1.7,3,2.9c.7,1.3,1.1,2.7,1.1,4.2s-.4,3-1.1,4.2c-.7,1.3-1.7,2.2-3,2.9-1.3.7-2.6,1.1-4.2,1.1s-2.9-.4-4.1-1.1ZM503.6,454.7c.8-.5,1.5-1.2,2-2.1s.7-1.9.7-3.1-.2-2.2-.7-3.1c-.5-.9-1.1-1.6-2-2.1-.8-.5-1.8-.7-2.8-.7s-2,.2-2.8.7c-.8.5-1.5,1.2-2,2.1-.5.9-.7,1.9-.7,3.1s.2,2.2.7,3.1,1.1,1.6,2,2.1c.8.5,1.8.7,2.8.7s2-.2,2.8-.7Z"/>
    <path d="M536.4,457.5h-2.6l-7.9-12v12h-2.6v-16.1h2.6l7.9,12v-12h2.6v16.1Z"/>
    <path d="M561.2,442.4c1.3.7,2.3,1.6,3,2.8s1.1,2.7,1.1,4.3-.4,3.1-1.1,4.3-1.7,2.1-3,2.8c-1.3.6-2.8,1-4.5,1h-5.3v-16.1h5.3c1.7,0,3.2.3,4.5,1ZM561,453.9c1-1,1.5-2.5,1.5-4.3s-.5-3.3-1.5-4.4c-1-1-2.4-1.6-4.3-1.6h-2.6v11.8h2.6c1.9,0,3.3-.5,4.3-1.5Z"/>
    <path d="M607.8,450.6c.6.8.9,1.6.9,2.6s-.2,1.6-.6,2.2-1,1.2-1.8,1.6c-.8.4-1.7.6-2.8.6h-6.4v-16.1h6.1c1.1,0,2,.2,2.8.6.8.4,1.4.9,1.8,1.5.4.6.6,1.3.6,2.1s-.2,1.7-.7,2.3c-.5.6-1.2,1.1-2,1.4.9.2,1.6.6,2.2,1.4ZM599.7,448.2h3.3c.9,0,1.5-.2,2-.6.5-.4.7-1,.7-1.7s-.2-1.3-.7-1.7c-.5-.4-1.2-.6-2-.6h-3.3v4.6ZM605.3,454.7c.5-.4.8-1,.8-1.8s-.3-1.4-.8-1.9-1.3-.7-2.2-.7h-3.5v5h3.6c.9,0,1.6-.2,2.1-.6Z"/>
    <path d="M631.5,457.5l-3.7-6.4h-2v6.4h-2.6v-16.1h5.6c1.2,0,2.3.2,3.1.6.9.4,1.5,1,1.9,1.7s.6,1.5.6,2.4-.3,2-.9,2.9c-.6.9-1.5,1.4-2.8,1.7l4,6.7h-3.1ZM625.8,449h2.9c1,0,1.7-.2,2.2-.7s.8-1.2.8-2-.2-1.5-.7-2c-.5-.5-1.2-.7-2.2-.7h-2.9v5.4Z"/>
    <path d="M652,441.4v16.1h-2.6v-16.1h2.6Z" />
    <path d="M678.7,446.1c-.4-.8-1-1.4-1.7-1.8-.7-.4-1.6-.6-2.6-.6s-2,.2-2.8.7c-.8.5-1.5,1.2-2,2-.5.9-.7,1.9-.7,3.1s.2,2.2.7,3.1c.5.9,1.1,1.6,2,2,.8.5,1.8.7,2.8.7s2.6-.4,3.5-1.2c.9-.8,1.4-1.9,1.6-3.3h-6v-2.1h8.9v2.1c-.2,1.3-.6,2.4-1.3,3.5-.7,1-1.7,1.9-2.8,2.5s-2.4.9-3.8.9-2.9-.4-4.1-1.1c-1.3-.7-2.2-1.7-3-2.9-.7-1.3-1.1-2.7-1.1-4.2s.4-3,1.1-4.2,1.7-2.2,3-2.9,2.6-1.1,4.1-1.1,3.2.4,4.6,1.3c1.3.8,2.3,2,2.9,3.6h-3.2Z"/>
    <path d="M709.4,441.4v16.1h-2.6v-7h-7.6v7h-2.6v-16.1h2.6v6.9h7.6v-6.9h2.6Z" />
    <path d="M734.9,441.4v2.2h-4.3v13.9h-2.6v-13.9h-4.3v-2.2h11.2Z" />
  </g>
</svg>