<svg width="219" height="219" viewBox="0 0 219 219" fill="none" xmlns="http://www.w3.org/2000/svg">
<path d="M84.4653 131.674C84.4496 130.776 83.7086 130.06 82.8101 130.076L51.8993 130.615L67.8274 110.809L90.6037 110.411C99.5887 110.254 107 117.411 107.156 126.396L108.52 204.486L85.7432 204.884L84.4653 131.674Z" fill="#96865D"/>
<path d="M132.475 85.271C132.491 86.1695 133.232 86.8852 134.13 86.8695L165.041 86.33L149.113 106.136L126.337 106.534C117.352 106.691 109.941 99.5342 109.784 90.5492L108.421 12.459L131.197 12.0614L132.475 85.271Z" fill="#96865D"/>
<path d="M131.672 132.48C130.774 132.496 130.058 133.237 130.074 134.135L130.613 165.046L110.807 149.118L110.409 126.342C110.252 117.357 117.409 109.946 126.394 109.789L204.484 108.426L204.882 131.202L131.672 132.48Z" fill="#96865D"/>
<path d="M85.2691 84.4653C86.1676 84.4496 86.8832 83.7086 86.8676 82.8101L86.328 51.8993L106.135 67.8274L106.532 90.6037C106.689 99.5887 99.5323 107 90.5473 107.156L12.457 108.52L12.0595 85.7432L85.2691 84.4653Z" fill="#96865D"/>
</svg>
